<svg xmlns="http://www.w3.org/2000/svg" width="163.327" height="145.86" viewBox="0 0 163.327 145.86">
  <g id="Group_48" data-name="Group 48">
    <g id="Group_3" data-name="Group 3" transform="translate(0 1.781)" opacity="0.41">
      <g id="Group_2" data-name="Group 2">
        <g id="Group_1" data-name="Group 1">
          <path id="Path_1" data-name="Path 1" d="M28.31,137.541a49.384,49.384,0,0,1-.195-8.246A53.823,53.823,0,0,1,43.8,94.907c3.233-3.225,6.949-6.158,8.951-10.3,3.372-6.967,2.7-14.733,6.972-21.662A39.262,39.262,0,0,1,77.9,47.354c22.191-9.19,54.47,2.146,53.012,30.087-.005.1-.009.246-.012.43a10.012,10.012,0,0,0,10.245,10.248c20.869-.6,39.631,14.855,44.509,35.435,3.137,13.235-.173,28.1-9.277,38.062-6.8,7.437-16.192,11.823-25.654,15-18.972,6.362-39.162,8.555-59.1,7.564-18.665-.927-38.525-5.339-51.263-19.289A48.387,48.387,0,0,1,28.31,137.541Z" transform="translate(-28.026 -44.223)" fill="gray"/>
        </g>
      </g>
    </g>
    <path id="Path_7" data-name="Path 7" d="M41.388,97.547a35.189,35.189,0,0,0-1.313,18.9c1.827,8.4,8.119,15.787,7.046,24.747-.644,5.377-.529,10.305-.659,15.588-.266,10.847,7.313,19.827,16.2,24.322,7.221,3.65,15.432,4.614,23.359,3.916a89.313,89.313,0,0,0,20.939-4.822c6.535-2.237,12.878-5.017,19.924-4.809,5.86.173,11.294,2.351,16.855,3.863,13.277,3.611,28.985,3.1,40.27-4.728,12.37-8.578,17.366-24.855,13.044-39.079-2.319-7.63-5.414-14.242-4.294-22.371.551-4,1.372-8.069.614-12.033a22.245,22.245,0,0,0-5.071-9.791c-6.4-7.708-15.5-12.623-24.971-15.514-10.74-3.28-22.663-5.069-33.831-3.371-21.693,3.3-26.414.091-49.091-3.129-15.191-2.157-29.451,9.922-36.374,22.383A37.62,37.62,0,0,0,41.388,97.547Z" transform="translate(-35.259 -58.27)" fill="gray" opacity="0.32"/>
    <g id="Group_11" data-name="Group 11" transform="translate(13.402 4.269)" opacity="0.83">
      <path id="Path_8" data-name="Path 8" d="M68.409,103.584c3.125-4.123,7.955-6.923,10.321-11.66,2.833-5.671,2.236-12.365,4.767-18.159a39.4,39.4,0,0,1,18.991-19.827,26.148,26.148,0,0,1,12.948-2.76c6.745.517,12.563,4.532,17.113,9.328,6.771,7.137,11.559,17.272,19.685,22.99,4.484,3.156,9.755-.192,14.506-1.254a32.872,32.872,0,0,1,16.089.542,34.223,34.223,0,0,1,21.666,18.392c4.347,9.533,3.729,22.713-4.43,30.91-3.775,3.792-8.893,6.326-11.694,10.868-3.515,5.7-3.928,13.4-4.909,19.742a41.886,41.886,0,0,1-8.571,19.475l-.154.192a27.613,27.613,0,0,1-32.381,8.116l-23.913-10.36c-24.263-10.512-42.683-27.45-51.526-52C65,122.81,64.308,111.485,66.746,106.3A15.214,15.214,0,0,1,68.409,103.584Z" transform="translate(-65.183 -51.12)" fill="gray" opacity="0.81"/>
    </g>
    <circle id="Ellipse_7" data-name="Ellipse 7" cx="0.541" cy="0.541" r="0.541" transform="translate(10.292 0)" fill="#3e479b" opacity="0.58"/>
    <g id="Group_17" data-name="Group 17" transform="translate(46.469 23.216)">
      <g id="Group_14" data-name="Group 14" transform="translate(56.987)">
        <path id="Path_13" data-name="Path 13" d="M335.149,141.427h-2.816a2.146,2.146,0,0,1-2.143-2.144v-3.167a1.428,1.428,0,0,0-.935-1.335c-.333-.122-.664-.259-.984-.408a1.441,1.441,0,0,0-1.62.277l-2.24,2.24a2.144,2.144,0,0,1-3.032,0L319.39,134.9a2.146,2.146,0,0,1,0-3.032l2.24-2.24a1.44,1.44,0,0,0,.277-1.619c-.149-.324-.287-.655-.408-.985a1.429,1.429,0,0,0-1.336-.934H317a2.146,2.146,0,0,1-2.144-2.144V121.13A2.146,2.146,0,0,1,317,118.987h3.167a1.428,1.428,0,0,0,1.336-.934c.121-.331.259-.662.408-.984a1.441,1.441,0,0,0-.277-1.619l-2.24-2.24a2.146,2.146,0,0,1,0-3.031l1.991-1.991a2.146,2.146,0,0,1,3.032,0l2.24,2.24a1.441,1.441,0,0,0,1.62.277c.323-.15.655-.287.985-.408a1.428,1.428,0,0,0,.934-1.336v-3.167a2.146,2.146,0,0,1,2.143-2.144h2.816a2.146,2.146,0,0,1,2.144,2.144v3.167a1.428,1.428,0,0,0,.935,1.336c.33.121.661.258.984.408a1.44,1.44,0,0,0,1.62-.277l2.24-2.24a2.146,2.146,0,0,1,3.032,0l1.991,1.991a2.147,2.147,0,0,1,0,3.031l-2.24,2.24a1.439,1.439,0,0,0-.277,1.619c.149.323.286.654.408.985a1.429,1.429,0,0,0,1.336.934h3.167a2.146,2.146,0,0,1,2.144,2.144v2.816a2.146,2.146,0,0,1-2.144,2.144h-3.167a1.429,1.429,0,0,0-1.336.934c-.121.33-.258.661-.407.984a1.439,1.439,0,0,0,.277,1.619l2.24,2.24a2.147,2.147,0,0,1,0,3.032L346.1,136.89a2.144,2.144,0,0,1-3.032,0l-2.24-2.24a1.441,1.441,0,0,0-1.62-.277c-.321.149-.652.286-.984.408a1.428,1.428,0,0,0-.935,1.335v3.167A2.146,2.146,0,0,1,335.149,141.427Zm-7.489-7.91a2.171,2.171,0,0,1,.914.2c.3.14.616.27.93.385a2.153,2.153,0,0,1,1.407,2.013v3.167a1.424,1.424,0,0,0,1.422,1.422h2.816a1.424,1.424,0,0,0,1.422-1.422v-3.167a2.153,2.153,0,0,1,1.407-2.013c.314-.115.627-.245.93-.385a2.164,2.164,0,0,1,2.433.422l2.24,2.24a1.424,1.424,0,0,0,2.012,0l1.991-1.991a1.424,1.424,0,0,0,0-2.012l-2.24-2.24a2.163,2.163,0,0,1-.422-2.433c.141-.3.271-.618.385-.929a2.152,2.152,0,0,1,2.013-1.407h3.167a1.424,1.424,0,0,0,1.423-1.422V121.13a1.424,1.424,0,0,0-1.423-1.422h-3.167a2.152,2.152,0,0,1-2.013-1.407c-.115-.313-.245-.625-.385-.93a2.163,2.163,0,0,1,.422-2.432l2.24-2.24a1.425,1.425,0,0,0,0-2.011l-1.991-1.991a1.425,1.425,0,0,0-2.012,0l-2.24,2.24a2.165,2.165,0,0,1-2.433.422c-.305-.141-.618-.271-.929-.385a2.153,2.153,0,0,1-1.408-2.013v-3.167a1.423,1.423,0,0,0-1.422-1.422h-2.816a1.424,1.424,0,0,0-1.422,1.422v3.167a2.153,2.153,0,0,1-1.407,2.013c-.312.114-.625.244-.93.385a2.163,2.163,0,0,1-2.432-.422l-2.24-2.24a1.425,1.425,0,0,0-2.012,0l-1.991,1.991a1.425,1.425,0,0,0,0,2.011l2.24,2.24a2.165,2.165,0,0,1,.422,2.432c-.141.3-.27.617-.385.93a2.152,2.152,0,0,1-2.013,1.407H317a1.424,1.424,0,0,0-1.423,1.422v2.816A1.424,1.424,0,0,0,317,125.368h3.167a2.152,2.152,0,0,1,2.013,1.407c.115.311.244.624.386.93a2.165,2.165,0,0,1-.422,2.432l-2.24,2.24a1.424,1.424,0,0,0,0,2.012l1.991,1.991a1.425,1.425,0,0,0,2.012,0l2.24-2.24A2.147,2.147,0,0,1,327.66,133.517Zm6.082-1.077a9.9,9.9,0,1,1,9.9-9.9A9.912,9.912,0,0,1,333.742,132.439Zm0-19.08a9.18,9.18,0,1,0,9.18,9.18A9.19,9.19,0,0,0,333.742,113.359Z" transform="translate(-314.853 -103.65)" fill="#fff"/>
      </g>
      <g id="Group_15" data-name="Group 15" transform="translate(32.923 72.234)" opacity="0.84">
        <path id="Path_14" data-name="Path 14" d="M287.256,320.925h-3.512a1.978,1.978,0,0,1-1.856-1.3q-.2-.541-.44-1.061a1.989,1.989,0,0,1,.388-2.247l2.484-2.484a1.977,1.977,0,0,0,0-2.8l-2.208-2.208a1.977,1.977,0,0,0-2.8,0l-2.484,2.484a1.988,1.988,0,0,1-2.247.388q-.52-.241-1.062-.44a1.978,1.978,0,0,1-1.3-1.857v-3.513a1.977,1.977,0,0,0-1.977-1.977h-3.122a1.977,1.977,0,0,0-1.977,1.977v3.513a1.978,1.978,0,0,1-1.3,1.857q-.542.2-1.061.44a1.989,1.989,0,0,1-2.247-.388l-2.484-2.484a1.977,1.977,0,0,0-2.8,0l-2.208,2.208a1.977,1.977,0,0,0,0,2.8l2.484,2.484a1.989,1.989,0,0,1,.388,2.247q-.241.519-.44,1.061a1.978,1.978,0,0,1-1.857,1.3h-3.512a1.978,1.978,0,0,0-1.977,1.977v3.122A1.978,1.978,0,0,0,250.115,328h3.512a1.978,1.978,0,0,1,1.857,1.3q.2.541.44,1.061a1.989,1.989,0,0,1-.388,2.247l-2.484,2.484a1.977,1.977,0,0,0,0,2.8l2.208,2.208a1.977,1.977,0,0,0,2.8,0l2.484-2.484a1.99,1.99,0,0,1,2.247-.388q.519.241,1.061.44a1.978,1.978,0,0,1,1.3,1.857v3.513a1.977,1.977,0,0,0,1.977,1.977h3.122a1.977,1.977,0,0,0,1.977-1.977v-3.513a1.978,1.978,0,0,1,1.3-1.857q.542-.2,1.062-.44a1.989,1.989,0,0,1,2.247.388l2.484,2.484a1.977,1.977,0,0,0,2.8,0l2.208-2.208a1.977,1.977,0,0,0,0-2.8l-2.484-2.484a1.989,1.989,0,0,1-.388-2.247q.241-.519.44-1.061a1.978,1.978,0,0,1,1.856-1.3h3.512a1.977,1.977,0,0,0,1.977-1.977V322.9A1.977,1.977,0,0,0,287.256,320.925Zm-18.57,14.119a10.58,10.58,0,1,1,10.581-10.581A10.58,10.58,0,0,1,268.685,335.044Z" transform="translate(-248.138 -303.916)" fill="#fff"/>
      </g>
      <g id="Group_16" data-name="Group 16" transform="translate(0 78.43)">
        <path id="Path_15" data-name="Path 15" d="M173.966,352.944H171.6a1.861,1.861,0,0,1-1.858-1.859v-2.66a1.143,1.143,0,0,0-.747-1.068c-.279-.1-.559-.217-.831-.344a1.153,1.153,0,0,0-1.3.221l-1.882,1.881a1.857,1.857,0,0,1-2.628,0l-1.672-1.672a1.858,1.858,0,0,1,0-2.628l1.881-1.881a1.152,1.152,0,0,0,.221-1.3c-.126-.271-.241-.551-.344-.831a1.142,1.142,0,0,0-1.068-.747h-2.66a1.861,1.861,0,0,1-1.859-1.859v-2.365a1.861,1.861,0,0,1,1.859-1.858h2.66a1.142,1.142,0,0,0,1.068-.747c.1-.282.219-.562.344-.831a1.152,1.152,0,0,0-.221-1.3l-1.881-1.882a1.857,1.857,0,0,1,0-2.628l1.672-1.673a1.861,1.861,0,0,1,2.628,0l1.882,1.882a1.151,1.151,0,0,0,1.3.221c.269-.125.549-.24.831-.344a1.142,1.142,0,0,0,.747-1.068v-2.661A1.86,1.86,0,0,1,171.6,321.1h2.365a1.86,1.86,0,0,1,1.858,1.858v2.661a1.142,1.142,0,0,0,.747,1.068c.283.1.562.219.831.344a1.152,1.152,0,0,0,1.3-.221l1.881-1.882a1.861,1.861,0,0,1,2.628,0l1.673,1.673a1.858,1.858,0,0,1,0,2.628L183,331.105a1.153,1.153,0,0,0-.222,1.3c.125.269.241.549.344.831a1.142,1.142,0,0,0,1.068.747h2.66a1.861,1.861,0,0,1,1.859,1.858V338.2a1.861,1.861,0,0,1-1.859,1.859h-2.66a1.142,1.142,0,0,0-1.068.747c-.1.28-.219.56-.344.831a1.152,1.152,0,0,0,.222,1.3l1.881,1.881a1.859,1.859,0,0,1,0,2.628l-1.673,1.672a1.857,1.857,0,0,1-2.628,0l-1.881-1.881a1.154,1.154,0,0,0-1.3-.221c-.273.127-.553.242-.831.344a1.142,1.142,0,0,0-.747,1.068v2.66A1.861,1.861,0,0,1,173.966,352.944Zm-6.29-6.76a1.887,1.887,0,0,1,.792.175c.254.118.516.226.776.321a1.868,1.868,0,0,1,1.22,1.745v2.66a1.138,1.138,0,0,0,1.137,1.137h2.365a1.138,1.138,0,0,0,1.137-1.137v-2.66a1.867,1.867,0,0,1,1.22-1.745c.26-.095.521-.2.777-.321a1.878,1.878,0,0,1,2.109.366l1.881,1.881a1.163,1.163,0,0,0,1.608,0l1.672-1.673a1.137,1.137,0,0,0,0-1.608l-1.882-1.881a1.875,1.875,0,0,1-.366-2.109c.117-.253.225-.514.321-.776a1.866,1.866,0,0,1,1.745-1.221h2.66a1.138,1.138,0,0,0,1.137-1.137v-2.365a1.138,1.138,0,0,0-1.137-1.137h-2.66a1.867,1.867,0,0,1-1.745-1.22c-.1-.264-.2-.525-.321-.777a1.876,1.876,0,0,1,.366-2.109l1.882-1.882a1.137,1.137,0,0,0,0-1.608l-1.672-1.673a1.139,1.139,0,0,0-1.608,0l-1.881,1.882a1.875,1.875,0,0,1-2.109.366c-.251-.117-.512-.225-.776-.322a1.866,1.866,0,0,1-1.22-1.745v-2.661a1.138,1.138,0,0,0-1.137-1.137H171.6a1.138,1.138,0,0,0-1.137,1.137v2.661a1.866,1.866,0,0,1-1.22,1.745c-.264.1-.526.205-.777.322a1.875,1.875,0,0,1-2.109-.366l-1.882-1.882a1.139,1.139,0,0,0-1.608,0l-1.672,1.673a1.136,1.136,0,0,0,0,1.608l1.881,1.882a1.875,1.875,0,0,1,.366,2.108c-.117.252-.225.513-.322.777a1.865,1.865,0,0,1-1.745,1.22h-2.66a1.138,1.138,0,0,0-1.137,1.137V338.2a1.138,1.138,0,0,0,1.137,1.137h2.66a1.866,1.866,0,0,1,1.745,1.22c.1.262.2.523.321.777a1.875,1.875,0,0,1-.366,2.109l-1.881,1.881a1.136,1.136,0,0,0,0,1.608l1.672,1.673a1.164,1.164,0,0,0,1.608,0l1.882-1.881A1.86,1.86,0,0,1,167.676,346.184Zm5.108-.79a8.375,8.375,0,1,1,8.374-8.375A8.384,8.384,0,0,1,172.784,345.394Zm0-16.028a7.653,7.653,0,1,0,7.653,7.653A7.662,7.662,0,0,0,172.784,329.366Z" transform="translate(-156.859 -321.095)" fill="#fff"/>
      </g>
    </g>
    <g id="Group_22" data-name="Group 22" transform="translate(113.85 84.085)" opacity="0.81">
      <path id="Path_16" data-name="Path 16" d="M407.458,299.643h-4.7a.361.361,0,0,1,0-.721h4.7a.361.361,0,0,1,0,.721Z" transform="translate(-381.214 -289.359)" fill="#fff"/>
      <path id="Path_17" data-name="Path 17" d="M407.458,321.125h-4.7a.361.361,0,0,1,0-.721h4.7a.361.361,0,1,1,0,.721Z" transform="translate(-381.214 -303.092)" fill="#fff"/>
      <g id="Group_21" data-name="Group 21">
        <g id="Group_20" data-name="Group 20">
          <g id="Group_19" data-name="Group 19">
            <path id="Path_18" data-name="Path 18" d="M373.24,298.267H344.65a.979.979,0,0,1-.978-.978v-23.9a.979.979,0,0,1,.978-.978H373.24a.979.979,0,0,1,.978.978v23.9A.979.979,0,0,1,373.24,298.267ZM344.65,273.129a.257.257,0,0,0-.257.256v23.9a.257.257,0,0,0,.257.257H373.24a.257.257,0,0,0,.257-.257v-23.9a.257.257,0,0,0-.257-.256Z" transform="translate(-343.672 -272.408)" fill="#fff"/>
            <path id="Path_19" data-name="Path 19" d="M373.24,298.267H344.65a.979.979,0,0,1-.978-.978v-23.9a.979.979,0,0,1,.978-.978H373.24a.979.979,0,0,1,.978.978v23.9A.979.979,0,0,1,373.24,298.267ZM344.65,273.129a.257.257,0,0,0-.257.256v23.9a.257.257,0,0,0,.257.257H373.24a.257.257,0,0,0,.257-.257v-23.9a.257.257,0,0,0-.257-.256Z" transform="translate(-343.672 -272.408)" fill="#fff" opacity="0.66"/>
          </g>
        </g>
        <path id="Path_20" data-name="Path 20" d="M376.077,289.217H353.67a.361.361,0,0,1,0-.721h22.407a.361.361,0,1,1,0,.721Z" transform="translate(-349.833 -282.693)" fill="#fff"/>
        <path id="Path_21" data-name="Path 21" d="M376.077,310.068H353.67a.361.361,0,0,1,0-.721h22.407a.361.361,0,1,1,0,.721Z" transform="translate(-349.833 -296.023)" fill="#fff"/>
        <path id="Path_22" data-name="Path 22" d="M365.75,299.643H353.67a.361.361,0,0,1,0-.721H365.75a.361.361,0,0,1,0,.721Z" transform="translate(-349.833 -289.359)" fill="#fff"/>
        <path id="Path_23" data-name="Path 23" d="M365.75,321.125H353.67a.361.361,0,0,1,0-.721H365.75a.361.361,0,0,1,0,.721Z" transform="translate(-349.833 -303.092)" fill="#fff"/>
        <path id="Path_24" data-name="Path 24" d="M361.817,331.077H353.67a.361.361,0,0,1,0-.721h8.147a.361.361,0,0,1,0,.721Z" transform="translate(-349.833 -309.455)" fill="#fff"/>
      </g>
    </g>
    <g id="Group_26" data-name="Group 26" transform="translate(18.885 43.353)" opacity="0.81">
      <path id="Path_25" data-name="Path 25" d="M152.7,190.281h-5.335a.361.361,0,0,1,0-.721H152.7a.361.361,0,1,1,0,.721Z" transform="translate(-122.977 -178.71)" fill="#fff"/>
      <path id="Path_26" data-name="Path 26" d="M152.7,214.654h-5.335a.361.361,0,0,1,0-.721H152.7a.361.361,0,1,1,0,.721Z" transform="translate(-122.977 -194.292)" fill="#fff"/>
      <g id="Group_25" data-name="Group 25">
        <g id="Group_24" data-name="Group 24">
          <g id="Group_23" data-name="Group 23">
            <path id="Path_27" data-name="Path 27" d="M113.964,188.719h-32.6a.979.979,0,0,1-.978-.978V160.457a.979.979,0,0,1,.978-.978h32.6a.979.979,0,0,1,.978.978v27.284A.979.979,0,0,1,113.964,188.719ZM81.362,160.2a.257.257,0,0,0-.256.256v27.284a.257.257,0,0,0,.256.256h32.6a.257.257,0,0,0,.256-.256V160.457a.257.257,0,0,0-.256-.256Z" transform="translate(-80.384 -159.479)" fill="#fff"/>
            <path id="Path_28" data-name="Path 28" d="M113.964,188.719h-32.6a.979.979,0,0,1-.978-.978V160.457a.979.979,0,0,1,.978-.978h32.6a.979.979,0,0,1,.978.978v27.284A.979.979,0,0,1,113.964,188.719ZM81.362,160.2a.257.257,0,0,0-.256.256v27.284a.257.257,0,0,0,.256.256h32.6a.257.257,0,0,0,.256-.256V160.457a.257.257,0,0,0-.256-.256Z" transform="translate(-80.384 -159.479)" fill="#fff" opacity="0.66"/>
          </g>
        </g>
        <path id="Path_29" data-name="Path 29" d="M117.1,178.452H91.678a.361.361,0,0,1,0-.721H117.1a.361.361,0,0,1,0,.721Z" transform="translate(-87.374 -171.148)" fill="#fff"/>
        <path id="Path_30" data-name="Path 30" d="M117.1,202.109H91.678a.361.361,0,1,1,0-.721H117.1a.361.361,0,1,1,0,.721Z" transform="translate(-87.374 -186.272)" fill="#fff"/>
        <path id="Path_31" data-name="Path 31" d="M105.384,190.281H91.678a.361.361,0,0,1,0-.721h13.706a.361.361,0,0,1,0,.721Z" transform="translate(-87.374 -178.71)" fill="#fff"/>
        <path id="Path_32" data-name="Path 32" d="M105.384,214.654H91.678a.361.361,0,0,1,0-.721h13.706a.361.361,0,0,1,0,.721Z" transform="translate(-87.374 -194.292)" fill="#fff"/>
        <path id="Path_33" data-name="Path 33" d="M100.921,225.945H91.678a.361.361,0,1,1,0-.721h9.243a.361.361,0,1,1,0,.721Z" transform="translate(-87.374 -201.51)" fill="#fff"/>
      </g>
    </g>
    <g id="Group_29" data-name="Group 29" transform="translate(103.923 42.826)">
      <path id="Path_34" data-name="Path 34" d="M343.649,158.019H327.437a1.739,1.739,0,0,0-1.608,1.319l-.537,1.782a1.739,1.739,0,0,1-1.608,1.319H300.475a1.848,1.848,0,0,0-1.7,1.965h0v26.277a1.848,1.848,0,0,0,1.7,1.965h43.175a1.9,1.9,0,0,0,1.818-1.965v-30.7A1.9,1.9,0,0,0,343.649,158.019Z" transform="translate(-298.772 -158.019)" fill="#cbba20"/>
      <path id="Path_35" data-name="Path 35" d="M327.086,165.546l.574-1.782a1.833,1.833,0,0,1,1.717-1.319h14.272a1.9,1.9,0,0,1,1.818,1.965v30.7a1.9,1.9,0,0,1-1.818,1.965H300.59a1.9,1.9,0,0,1-1.818-1.965V168.831a1.9,1.9,0,0,1,1.818-1.965h24.779A1.834,1.834,0,0,0,327.086,165.546Z" transform="translate(-298.772 -160.849)" fill="#d2bd02"/>
      <path id="Path_36" data-name="Path 36" d="M332.9,170.882l.54-1.68a1.729,1.729,0,0,1,1.619-1.244h13.453a1.787,1.787,0,0,1,1.714,1.852v28.934a1.787,1.787,0,0,1-1.714,1.852H307.921a1.787,1.787,0,0,1-1.713-1.852V173.978a1.787,1.787,0,0,1,1.713-1.852h23.357A1.728,1.728,0,0,0,332.9,170.882Z" transform="translate(-303.526 -164.374)" fill="#fff" opacity="0.12"/>
    </g>
    <path id="Path_37" data-name="Path 37" d="M395.077,233.2H384.426a.361.361,0,1,1,0-.721h10.651a1.248,1.248,0,0,0,1.246-1.247v-8.45a.361.361,0,1,1,.721,0v8.45A1.97,1.97,0,0,1,395.077,233.2Z" transform="translate(-255.645 -156.369)" fill="#fff"/>
    <g id="Group_32" data-name="Group 32" transform="translate(13.536 72.712)">
      <g id="Group_31" data-name="Group 31">
        <path id="Path_38" data-name="Path 38" d="M67.385,240.875H83.7a1.806,1.806,0,0,1,1.618,1.484l.541,2a1.806,1.806,0,0,0,1.619,1.484h23.359a2.01,2.01,0,0,1,1.714,2.21h0v29.559a2.01,2.01,0,0,1-1.714,2.21H67.385a2.047,2.047,0,0,1-1.83-2.21V243.085A2.047,2.047,0,0,1,67.385,240.875Z" transform="translate(-65.555 -240.875)" fill="#e67a0c"/>
        <path id="Path_39" data-name="Path 39" d="M84.055,249.343l-.577-2a1.89,1.89,0,0,0-1.728-1.484H67.385a2.047,2.047,0,0,0-1.83,2.21V282.6a2.047,2.047,0,0,0,1.83,2.21h43.337a2.047,2.047,0,0,0,1.83-2.21V253.037a2.047,2.047,0,0,0-1.83-2.21H85.783A1.89,1.89,0,0,1,84.055,249.343Z" transform="translate(-65.555 -244.058)" fill="#fff" opacity="0.12"/>
        <path id="Path_40" data-name="Path 40" d="M82.992,255.345l-.544-1.889a1.781,1.781,0,0,0-1.629-1.4H67.279a1.93,1.93,0,0,0-1.724,2.083v32.548a1.93,1.93,0,0,0,1.724,2.083h40.849a1.929,1.929,0,0,0,1.724-2.083V258.828a1.93,1.93,0,0,0-1.724-2.084H84.621A1.781,1.781,0,0,1,82.992,255.345Z" transform="translate(-65.555 -248.024)" fill="#fff" opacity="0.12"/>
      </g>
    </g>
    <path id="Path_41" data-name="Path 41" d="M74.226,264.36A.343.343,0,0,1,73.9,264v-5.006a1.172,1.172,0,0,1,1.1-1.23h6.725a.363.363,0,0,1,0,.721H75a.484.484,0,0,0-.455.509V264A.343.343,0,0,1,74.226,264.36Z" transform="translate(-57.356 -178.96)" fill="#fff"/>
    <g id="Group_36" data-name="Group 36" transform="translate(88.098 31.847)">
      <g id="Group_35" data-name="Group 35" transform="translate(0 0)">
        <circle id="Ellipse_9" data-name="Ellipse 9" cx="19.601" cy="19.601" r="19.601" fill="#59b135"/>
      </g>
    </g>
    <g id="Group_41" data-name="Group 41" transform="translate(96.807 40.212)">
      <g id="Group_40" data-name="Group 40" transform="translate(5.406)">
        <path id="Path_42" data-name="Path 42" d="M238.421,111.3a.9.9,0,0,1-.632-1.544l5.26-5.171,5.177,5.177a.9.9,0,0,1-1.275,1.275l-3.912-3.912-3.985,3.917A.9.9,0,0,1,238.421,111.3Z" transform="translate(-237.52 -104.589)" fill="#fff"/>
        <path id="Path_43" data-name="Path 43" d="M251.129,119.129a.9.9,0,0,1-.9-.9V106.511a.9.9,0,1,1,1.8,0v11.716A.9.9,0,0,1,251.129,119.129Z" transform="translate(-245.644 -105.241)" fill="#fff"/>
      </g>
      <path id="Path_44" data-name="Path 44" d="M241.946,141.9H224.765a2.236,2.236,0,0,1-2.234-2.234v-6.242a.9.9,0,0,1,1.8,0v6.242a.431.431,0,0,0,.43.43h17.181a.566.566,0,0,0,.565-.565v-6.107a.9.9,0,0,1,1.8,0v6.107A2.371,2.371,0,0,1,241.946,141.9Z" transform="translate(-222.531 -122.445)" fill="#fff"/>
    </g>
    <path id="Path_45" data-name="Path 45" d="M207.033,228.856,157.862,245.1a2.293,2.293,0,0,1-2.9-1.458L138.72,194.473a2.293,2.293,0,0,1,1.458-2.9l49.171-16.246a2.293,2.293,0,0,1,2.9,1.458l16.246,49.171A2.293,2.293,0,0,1,207.033,228.856Z" transform="translate(-98.719 -126.186)" fill="#0a5222" opacity="0.36"/>
    <rect id="Rectangle_5" data-name="Rectangle 5" width="56.371" height="56.371" rx="6.357" transform="translate(35.667 64.291) rotate(-18.283)" fill="#fff"/>
    <g id="Group_43" data-name="Group 43" transform="translate(41.701 52.681)">
      <rect id="Rectangle_6" data-name="Rectangle 6" width="46.77" height="46.77" rx="4" transform="translate(0 14.672) rotate(-18.283)" fill="rgba(89,177,53,0.27)"/>
      <path id="Path_46" data-name="Path 46" d="M177.385,284.781l-3.322-10.054,4.859-11.712a3.362,3.362,0,0,1,4.12-1.931l8.994,2.794a1.2,1.2,0,0,0,1.39-.53l7.488-12.463a6.223,6.223,0,0,1,7.766-2.5l8.247,3.548.076.231,5.817,17.608-.514.169Zm-2.168-10.011,2.856,8.645,43.381-14.333-5.4-16.349-7.8-3.356a5.136,5.136,0,0,0-6.411,2.066l-7.488,12.463a2.28,2.28,0,0,1-2.638,1.006l-8.994-2.794a2.284,2.284,0,0,0-2.8,1.312Z" transform="translate(-163.09 -225.324)" fill="#fff" opacity="0.47"/>
      <path id="Path_47" data-name="Path 47" d="M214.169,233.771a5.758,5.758,0,1,1,1.8-.291A5.766,5.766,0,0,1,214.169,233.771Zm-.008-10.43a4.674,4.674,0,1,0,4.441,3.208A4.645,4.645,0,0,0,214.162,223.341Z" transform="translate(-185.048 -208.943)" fill="#fff" opacity="0.47"/>
    </g>
    <path id="Path_52" data-name="Path 52" d="M10.589,0H32.384A10.589,10.589,0,0,1,42.973,10.589V32.384A10.589,10.589,0,0,1,32.384,42.973H10.589A10.589,10.589,0,0,1,0,32.384V10.589A10.589,10.589,0,0,1,10.589,0Z" transform="translate(82.437 68.551)" fill="#0a5222" opacity="0.36"/>
    <rect id="Rectangle_8" data-name="Rectangle 8" width="42.973" height="42.973" rx="6.357" transform="translate(80.256 66.37)" fill="#fff"/>
    <g id="Group_45" data-name="Group 45" transform="translate(83.399 70.029)">
      <rect id="Rectangle_9" data-name="Rectangle 9" width="35.653" height="35.653" rx="5" transform="translate(0.492)" fill="#318820" opacity="0.79"/>
      <path id="Path_48" data-name="Path 48" d="M295.983,297.159H259.247v-8.248l6.349-7.352a2.692,2.692,0,0,1,3.617-.433l5.842,4.173a.788.788,0,0,0,.974-.044l8.4-7.23a4.872,4.872,0,0,1,6.389.047l5.164,4.579Zm-35.653-1.082H294.9V283.138l-4.8-4.256a3.787,3.787,0,0,0-4.965-.037l-8.4,7.23a1.867,1.867,0,0,1-2.308.1l-5.842-4.173a1.615,1.615,0,0,0-2.169.259l-6.086,7.047Z" transform="translate(-259.247 -261.195)" fill="#fff" opacity="0.47"/>
      <path id="Path_49" data-name="Path 49" d="M308.121,258.084a4.516,4.516,0,1,1,4.516-4.516A4.521,4.521,0,0,1,308.121,258.084Zm0-7.95a3.434,3.434,0,1,0,3.434,3.434A3.438,3.438,0,0,0,308.121,250.134Z" transform="translate(-287.605 -243.42)" fill="#fff" opacity="0.47"/>
    </g>
    <rect id="Rectangle_10" data-name="Rectangle 10" width="27.759" height="27.759" rx="6.357" transform="translate(62.125 98.146) rotate(-20.54)" fill="#0a5222" opacity="0.36"/>
    <rect id="Rectangle_11" data-name="Rectangle 11" width="27.759" height="27.759" rx="6.357" transform="translate(60.312 97.321) rotate(-20.54)" fill="#fff"/>
    <g id="Group_47" data-name="Group 47" transform="translate(63.34 90.63)">
      <rect id="Rectangle_12" data-name="Rectangle 12" width="23.031" height="23.031" rx="5" transform="matrix(0.936, -0.351, 0.351, 0.936, 0, 8.081)" fill="#0a5222"/>
      <path id="Path_50" data-name="Path 50" d="M221.621,339.973l-1.962-5.236,2.2-5.953a1.929,1.929,0,0,1,2.319-1.2l4.48,1.2a.317.317,0,0,0,.361-.154l3.443-6.278a3.342,3.342,0,0,1,4.113-1.506l4.242,1.63,3.385,9.036Zm-.807-5.239,1.441,3.846,20.554-7.7-2.835-7.567-3.788-1.455a2.253,2.253,0,0,0-2.775,1.016l-3.443,6.278a1.4,1.4,0,0,1-1.59.68l-4.48-1.2a.85.85,0,0,0-1.024.529Z" transform="translate(-213.879 -309.779)" fill="#fff" opacity="0.47"/>
      <path id="Path_51" data-name="Path 51" d="M238.086,314.99a3.109,3.109,0,1,1,2.908-4.2h0a3.109,3.109,0,0,1-2.908,4.2Zm-.006-5.136a2.027,2.027,0,1,0,1.9,1.316A2.02,2.02,0,0,0,238.08,309.854Z" transform="translate(-223.669 -302.2)" fill="#fff" opacity="0.47"/>
    </g>
  </g>
</svg>
